<mxfile host="app.diagrams.net" modified="2024-01-15T13:08:07.396Z" agent="Mozilla/5.0 (Windows NT 10.0; Win64; x64) AppleWebKit/537.36 (KHTML, like Gecko) Chrome/120.0.0.0 Safari/537.36" etag="JGiB-xmeBsIu7S-f4lWM" version="22.1.17" type="device">
  <diagram name="Page-1" id="QyZ9tgaz3stFGaOWcFHF">
    <mxGraphModel dx="2333" dy="1284" grid="1" gridSize="10" guides="1" tooltips="1" connect="1" arrows="1" fold="1" page="1" pageScale="1" pageWidth="827" pageHeight="1169" math="0" shadow="0">
      <root>
        <mxCell id="0" />
        <mxCell id="1" parent="0" />
        <mxCell id="91CZXOkGLqf2xFRuc7HA-1" value="&lt;font face=&quot;Times New Roman&quot;&gt;Admin&lt;/font&gt;" style="shape=umlActor;verticalLabelPosition=bottom;verticalAlign=top;html=1;outlineConnect=0;" vertex="1" parent="1">
          <mxGeometry x="80" y="510" width="72" height="144" as="geometry" />
        </mxCell>
        <mxCell id="91CZXOkGLqf2xFRuc7HA-2" value="&lt;font face=&quot;Times New Roman&quot;&gt;User&lt;/font&gt;" style="shape=umlActor;verticalLabelPosition=bottom;verticalAlign=top;html=1;outlineConnect=0;" vertex="1" parent="1">
          <mxGeometry x="1050" y="510" width="72" height="144" as="geometry" />
        </mxCell>
        <mxCell id="91CZXOkGLqf2xFRuc7HA-5" value="&lt;font face=&quot;Times New Roman&quot;&gt;Create Account&lt;/font&gt;" style="ellipse;whiteSpace=wrap;html=1;" vertex="1" parent="1">
          <mxGeometry x="540" y="20" width="90" height="60" as="geometry" />
        </mxCell>
        <mxCell id="91CZXOkGLqf2xFRuc7HA-12" value="&lt;font face=&quot;Times New Roman&quot;&gt;Login&lt;/font&gt;" style="ellipse;whiteSpace=wrap;html=1;" vertex="1" parent="1">
          <mxGeometry x="540" y="120" width="90" height="60" as="geometry" />
        </mxCell>
        <mxCell id="91CZXOkGLqf2xFRuc7HA-13" value="View Profile" style="ellipse;whiteSpace=wrap;html=1;" vertex="1" parent="1">
          <mxGeometry x="540" y="220" width="90" height="60" as="geometry" />
        </mxCell>
        <mxCell id="91CZXOkGLqf2xFRuc7HA-14" value="&lt;font face=&quot;Times New Roman&quot;&gt;Report&lt;/font&gt;" style="ellipse;whiteSpace=wrap;html=1;" vertex="1" parent="1">
          <mxGeometry x="540" y="320" width="90" height="60" as="geometry" />
        </mxCell>
        <mxCell id="91CZXOkGLqf2xFRuc7HA-15" value="&lt;font face=&quot;Times New Roman&quot;&gt;Create Post&lt;/font&gt;" style="ellipse;whiteSpace=wrap;html=1;" vertex="1" parent="1">
          <mxGeometry x="540" y="420" width="90" height="60" as="geometry" />
        </mxCell>
        <mxCell id="91CZXOkGLqf2xFRuc7HA-16" value="&lt;font face=&quot;Times New Roman&quot;&gt;Send Application&lt;/font&gt;" style="ellipse;whiteSpace=wrap;html=1;" vertex="1" parent="1">
          <mxGeometry x="540" y="520" width="90" height="60" as="geometry" />
        </mxCell>
        <mxCell id="91CZXOkGLqf2xFRuc7HA-17" value="&lt;font face=&quot;Times New Roman&quot;&gt;Search Post&lt;/font&gt;" style="ellipse;whiteSpace=wrap;html=1;" vertex="1" parent="1">
          <mxGeometry x="540" y="620" width="90" height="60" as="geometry" />
        </mxCell>
        <mxCell id="91CZXOkGLqf2xFRuc7HA-18" value="&lt;font face=&quot;Times New Roman&quot;&gt;Communication&lt;/font&gt;" style="ellipse;whiteSpace=wrap;html=1;" vertex="1" parent="1">
          <mxGeometry x="540" y="720" width="90" height="60" as="geometry" />
        </mxCell>
        <mxCell id="91CZXOkGLqf2xFRuc7HA-19" value="&lt;font face=&quot;Times New Roman&quot;&gt;Delete Post&lt;/font&gt;" style="ellipse;whiteSpace=wrap;html=1;" vertex="1" parent="1">
          <mxGeometry x="540" y="820" width="90" height="60" as="geometry" />
        </mxCell>
        <mxCell id="91CZXOkGLqf2xFRuc7HA-20" value="&lt;font face=&quot;Times New Roman&quot;&gt;Hire&lt;/font&gt;" style="ellipse;whiteSpace=wrap;html=1;" vertex="1" parent="1">
          <mxGeometry x="540" y="920" width="90" height="60" as="geometry" />
        </mxCell>
        <mxCell id="91CZXOkGLqf2xFRuc7HA-21" value="&lt;font face=&quot;Times New Roman&quot;&gt;Block User&lt;/font&gt;" style="ellipse;whiteSpace=wrap;html=1;" vertex="1" parent="1">
          <mxGeometry x="540" y="1020" width="90" height="60" as="geometry" />
        </mxCell>
        <mxCell id="91CZXOkGLqf2xFRuc7HA-22" value="&lt;font face=&quot;Times New Roman&quot;&gt;Delete User&lt;/font&gt;" style="ellipse;whiteSpace=wrap;html=1;" vertex="1" parent="1">
          <mxGeometry x="540" y="1120" width="90" height="60" as="geometry" />
        </mxCell>
        <mxCell id="91CZXOkGLqf2xFRuc7HA-28" value="" style="endArrow=none;html=1;rounded=0;fontFamily=Helvetica;fontSize=12;fontColor=default;entryX=0;entryY=0.5;entryDx=0;entryDy=0;" edge="1" parent="1" target="91CZXOkGLqf2xFRuc7HA-5">
          <mxGeometry width="50" height="50" relative="1" as="geometry">
            <mxPoint x="150" y="560" as="sourcePoint" />
            <mxPoint x="530" y="60" as="targetPoint" />
          </mxGeometry>
        </mxCell>
        <mxCell id="91CZXOkGLqf2xFRuc7HA-29" value="" style="endArrow=none;html=1;rounded=0;fontFamily=Helvetica;fontSize=12;fontColor=default;entryX=1;entryY=0.5;entryDx=0;entryDy=0;exitX=0;exitY=0.3333333333333333;exitDx=0;exitDy=0;exitPerimeter=0;" edge="1" parent="1" source="91CZXOkGLqf2xFRuc7HA-2" target="91CZXOkGLqf2xFRuc7HA-5">
          <mxGeometry width="50" height="50" relative="1" as="geometry">
            <mxPoint x="1060" y="506" as="sourcePoint" />
            <mxPoint x="650" y="56" as="targetPoint" />
          </mxGeometry>
        </mxCell>
        <mxCell id="91CZXOkGLqf2xFRuc7HA-30" value="" style="endArrow=none;html=1;rounded=0;fontFamily=Helvetica;fontSize=12;fontColor=default;exitX=1;exitY=0.3333333333333333;exitDx=0;exitDy=0;exitPerimeter=0;" edge="1" parent="1" source="91CZXOkGLqf2xFRuc7HA-1">
          <mxGeometry width="50" height="50" relative="1" as="geometry">
            <mxPoint x="490" y="200" as="sourcePoint" />
            <mxPoint x="540" y="150" as="targetPoint" />
          </mxGeometry>
        </mxCell>
        <mxCell id="91CZXOkGLqf2xFRuc7HA-31" value="" style="endArrow=none;html=1;rounded=0;fontFamily=Helvetica;fontSize=12;fontColor=default;entryX=1;entryY=0.5;entryDx=0;entryDy=0;exitX=0;exitY=0.3333333333333333;exitDx=0;exitDy=0;exitPerimeter=0;" edge="1" parent="1" source="91CZXOkGLqf2xFRuc7HA-2" target="91CZXOkGLqf2xFRuc7HA-12">
          <mxGeometry width="50" height="50" relative="1" as="geometry">
            <mxPoint x="720" y="300" as="sourcePoint" />
            <mxPoint x="670" y="250" as="targetPoint" />
          </mxGeometry>
        </mxCell>
        <mxCell id="91CZXOkGLqf2xFRuc7HA-34" value="" style="endArrow=none;html=1;rounded=0;fontFamily=Helvetica;fontSize=12;fontColor=default;entryX=0;entryY=0.5;entryDx=0;entryDy=0;" edge="1" parent="1" target="91CZXOkGLqf2xFRuc7HA-18">
          <mxGeometry width="50" height="50" relative="1" as="geometry">
            <mxPoint x="152" y="560" as="sourcePoint" />
            <mxPoint x="202" y="510" as="targetPoint" />
          </mxGeometry>
        </mxCell>
        <mxCell id="91CZXOkGLqf2xFRuc7HA-35" value="" style="endArrow=none;html=1;rounded=0;fontFamily=Helvetica;fontSize=12;fontColor=default;entryX=1;entryY=0.5;entryDx=0;entryDy=0;" edge="1" parent="1" target="91CZXOkGLqf2xFRuc7HA-13">
          <mxGeometry width="50" height="50" relative="1" as="geometry">
            <mxPoint x="1050" y="560" as="sourcePoint" />
            <mxPoint x="630" y="246" as="targetPoint" />
          </mxGeometry>
        </mxCell>
        <mxCell id="91CZXOkGLqf2xFRuc7HA-36" value="" style="endArrow=none;html=1;rounded=0;fontFamily=Helvetica;fontSize=12;fontColor=default;entryX=1;entryY=0.5;entryDx=0;entryDy=0;exitX=0;exitY=0.3333333333333333;exitDx=0;exitDy=0;exitPerimeter=0;" edge="1" parent="1" source="91CZXOkGLqf2xFRuc7HA-2" target="91CZXOkGLqf2xFRuc7HA-14">
          <mxGeometry width="50" height="50" relative="1" as="geometry">
            <mxPoint x="1050" y="560" as="sourcePoint" />
            <mxPoint x="630" y="344" as="targetPoint" />
          </mxGeometry>
        </mxCell>
        <mxCell id="91CZXOkGLqf2xFRuc7HA-37" value="" style="endArrow=none;html=1;rounded=0;fontFamily=Helvetica;fontSize=12;fontColor=default;exitX=0;exitY=0.3333333333333333;exitDx=0;exitDy=0;exitPerimeter=0;" edge="1" parent="1" source="91CZXOkGLqf2xFRuc7HA-2">
          <mxGeometry width="50" height="50" relative="1" as="geometry">
            <mxPoint x="1050" y="560" as="sourcePoint" />
            <mxPoint x="630" y="450" as="targetPoint" />
          </mxGeometry>
        </mxCell>
        <mxCell id="91CZXOkGLqf2xFRuc7HA-38" value="" style="endArrow=none;html=1;rounded=0;fontFamily=Helvetica;fontSize=12;fontColor=default;entryX=1;entryY=0.5;entryDx=0;entryDy=0;exitX=0;exitY=0.3333333333333333;exitDx=0;exitDy=0;exitPerimeter=0;" edge="1" parent="1" source="91CZXOkGLqf2xFRuc7HA-2" target="91CZXOkGLqf2xFRuc7HA-17">
          <mxGeometry width="50" height="50" relative="1" as="geometry">
            <mxPoint x="1050" y="857" as="sourcePoint" />
            <mxPoint x="630" y="643" as="targetPoint" />
          </mxGeometry>
        </mxCell>
        <mxCell id="91CZXOkGLqf2xFRuc7HA-39" value="" style="endArrow=none;html=1;rounded=0;fontFamily=Helvetica;fontSize=12;fontColor=default;entryX=1;entryY=0.5;entryDx=0;entryDy=0;" edge="1" parent="1" target="91CZXOkGLqf2xFRuc7HA-16">
          <mxGeometry width="50" height="50" relative="1" as="geometry">
            <mxPoint x="1050" y="557" as="sourcePoint" />
            <mxPoint x="630" y="343" as="targetPoint" />
          </mxGeometry>
        </mxCell>
        <mxCell id="91CZXOkGLqf2xFRuc7HA-40" value="" style="endArrow=none;html=1;rounded=0;fontFamily=Helvetica;fontSize=12;fontColor=default;entryX=1;entryY=0.5;entryDx=0;entryDy=0;exitX=0;exitY=0.3333333333333333;exitDx=0;exitDy=0;exitPerimeter=0;" edge="1" parent="1" source="91CZXOkGLqf2xFRuc7HA-2" target="91CZXOkGLqf2xFRuc7HA-18">
          <mxGeometry width="50" height="50" relative="1" as="geometry">
            <mxPoint x="1070" y="628" as="sourcePoint" />
            <mxPoint x="650" y="720" as="targetPoint" />
          </mxGeometry>
        </mxCell>
        <mxCell id="91CZXOkGLqf2xFRuc7HA-41" value="" style="endArrow=none;html=1;rounded=0;fontFamily=Helvetica;fontSize=12;fontColor=default;entryX=1;entryY=0.5;entryDx=0;entryDy=0;exitX=0;exitY=0.3333333333333333;exitDx=0;exitDy=0;exitPerimeter=0;" edge="1" parent="1" source="91CZXOkGLqf2xFRuc7HA-2" target="91CZXOkGLqf2xFRuc7HA-19">
          <mxGeometry width="50" height="50" relative="1" as="geometry">
            <mxPoint x="1050" y="660" as="sourcePoint" />
            <mxPoint x="630" y="852" as="targetPoint" />
          </mxGeometry>
        </mxCell>
        <mxCell id="91CZXOkGLqf2xFRuc7HA-42" value="" style="endArrow=none;html=1;rounded=0;fontFamily=Helvetica;fontSize=12;fontColor=default;entryX=1;entryY=0.5;entryDx=0;entryDy=0;exitX=0;exitY=0.3333333333333333;exitDx=0;exitDy=0;exitPerimeter=0;" edge="1" parent="1" source="91CZXOkGLqf2xFRuc7HA-2" target="91CZXOkGLqf2xFRuc7HA-20">
          <mxGeometry width="50" height="50" relative="1" as="geometry">
            <mxPoint x="1070" y="620" as="sourcePoint" />
            <mxPoint x="650" y="912" as="targetPoint" />
          </mxGeometry>
        </mxCell>
        <mxCell id="91CZXOkGLqf2xFRuc7HA-44" value="" style="endArrow=none;html=1;rounded=0;fontFamily=Helvetica;fontSize=12;fontColor=default;entryX=0;entryY=0.5;entryDx=0;entryDy=0;exitX=1;exitY=0.3333333333333333;exitDx=0;exitDy=0;exitPerimeter=0;" edge="1" parent="1" source="91CZXOkGLqf2xFRuc7HA-1" target="91CZXOkGLqf2xFRuc7HA-19">
          <mxGeometry width="50" height="50" relative="1" as="geometry">
            <mxPoint x="130" y="590" as="sourcePoint" />
            <mxPoint x="518" y="780" as="targetPoint" />
          </mxGeometry>
        </mxCell>
        <mxCell id="91CZXOkGLqf2xFRuc7HA-45" value="" style="endArrow=none;html=1;rounded=0;fontFamily=Helvetica;fontSize=12;fontColor=default;entryX=0;entryY=0.5;entryDx=0;entryDy=0;exitX=1;exitY=0.3333333333333333;exitDx=0;exitDy=0;exitPerimeter=0;" edge="1" parent="1" source="91CZXOkGLqf2xFRuc7HA-1" target="91CZXOkGLqf2xFRuc7HA-21">
          <mxGeometry width="50" height="50" relative="1" as="geometry">
            <mxPoint x="120" y="660" as="sourcePoint" />
            <mxPoint x="508" y="850" as="targetPoint" />
          </mxGeometry>
        </mxCell>
        <mxCell id="91CZXOkGLqf2xFRuc7HA-46" value="" style="endArrow=none;html=1;rounded=0;fontFamily=Helvetica;fontSize=12;fontColor=default;entryX=0;entryY=0.5;entryDx=0;entryDy=0;exitX=1;exitY=0.3333333333333333;exitDx=0;exitDy=0;exitPerimeter=0;" edge="1" parent="1" source="91CZXOkGLqf2xFRuc7HA-1" target="91CZXOkGLqf2xFRuc7HA-22">
          <mxGeometry width="50" height="50" relative="1" as="geometry">
            <mxPoint x="120" y="710" as="sourcePoint" />
            <mxPoint x="508" y="900" as="targetPoint" />
          </mxGeometry>
        </mxCell>
      </root>
    </mxGraphModel>
  </diagram>
</mxfile>
